<?xml version="1.0" encoding="UTF-8" standalone="no"?>
<!DOCTYPE svg PUBLIC "-//W3C//DTD SVG 1.1//EN"
 "http://www.w3.org/Graphics/SVG/1.1/DTD/svg11.dtd">
<!-- Generated by graphviz version 2.40.1 (20161225.0304)
 -->
<!-- Title: dependencies Pages: 1 -->
<svg width="504pt" height="284pt"
 viewBox="0.00 0.00 504.00 284.00" xmlns="http://www.w3.org/2000/svg" xmlns:xlink="http://www.w3.org/1999/xlink">
<g id="graph0" class="graph" transform="scale(1 1) rotate(0) translate(4 280)">
<title>dependencies</title>
<polygon fill="#ffffff" stroke="transparent" points="-4,4 -4,-280 500,-280 500,4 -4,4"/>
<text text-anchor="start" x="227.0091" y="-42.4" font-family="sans-serif" font-weight="bold" font-size="14.00" fill="#000000">Legend</text>
<polygon fill="#ffffb3" stroke="transparent" points="14,-10 14,-30 34,-30 34,-10 14,-10"/>
<text text-anchor="start" x="37.629" y="-15.4" font-family="sans-serif" font-size="14.00" fill="#000000"> &#160;Declarations</text>
<polygon fill="#8dd3c7" stroke="transparent" points="127,-10 127,-30 147,-30 147,-10 127,-10"/>
<text text-anchor="start" x="150.7251" y="-15.4" font-family="sans-serif" font-size="14.00" fill="#000000"> &#160;Module</text>
<polygon fill="#80b1d3" stroke="transparent" points="213,-10 213,-30 233,-30 233,-10 213,-10"/>
<text text-anchor="start" x="236.7812" y="-15.4" font-family="sans-serif" font-size="14.00" fill="#000000"> &#160;Bootstrap</text>
<polygon fill="#fdb462" stroke="transparent" points="310,-10 310,-30 330,-30 330,-10 310,-10"/>
<text text-anchor="start" x="333.6732" y="-15.4" font-family="sans-serif" font-size="14.00" fill="#000000"> &#160;Providers</text>
<polygon fill="#fb8072" stroke="transparent" points="406,-10 406,-30 426,-30 426,-10 406,-10"/>
<text text-anchor="start" x="429.7258" y="-15.4" font-family="sans-serif" font-size="14.00" fill="#000000"> &#160;Exports</text>
<g id="clust1" class="cluster">
<title>cluster_ImageSliderModule</title>
<polygon fill="none" stroke="#000000" stroke-dasharray="1,5" points="72,-70 72,-268 424,-268 424,-70 72,-70"/>
</g>
<g id="clust2" class="cluster">
<title>cluster_ImageSliderModule_declarations</title>
<polygon fill="none" stroke="#000000" points="84,-78 84,-130 412,-130 412,-78 84,-78"/>
</g>
<g id="clust6" class="cluster">
<title>cluster_ImageSliderModule_exports</title>
<polygon fill="none" stroke="#000000" points="80,-208 80,-260 416,-260 416,-208 80,-208"/>
</g>
<!-- ImageSliderComponent -->
<g id="node1" class="node">
<title>ImageSliderComponent</title>
<polygon fill="#ffffb3" stroke="#000000" points="403.752,-122 254.248,-122 254.248,-86 403.752,-86 403.752,-122"/>
<text text-anchor="middle" x="329" y="-99.8" font-family="Times,serif" font-size="14.00" fill="#000000">ImageSliderComponent</text>
</g>
<!-- ImageSliderModule -->
<g id="node3" class="node">
<title>ImageSliderModule</title>
<polygon fill="#8dd3c7" stroke="#000000" points="228.9692,-187 225.9692,-191 204.9692,-191 201.9692,-187 101.0308,-187 101.0308,-151 228.9692,-151 228.9692,-187"/>
<text text-anchor="middle" x="165" y="-164.8" font-family="Times,serif" font-size="14.00" fill="#000000">ImageSliderModule</text>
</g>
<!-- ImageSliderComponent&#45;&gt;ImageSliderModule -->
<g id="edge1" class="edge">
<title>ImageSliderComponent&#45;&gt;ImageSliderModule</title>
<path fill="none" stroke="#000000" d="M354.042,-122.0225C354.042,-139.3734 354.042,-163 354.042,-163 354.042,-163 239.001,-163 239.001,-163"/>
<polygon fill="#000000" stroke="#000000" points="239.001,-159.5001 229.001,-163 239.001,-166.5001 239.001,-159.5001"/>
</g>
<!-- ImagemainComponent -->
<g id="node2" class="node">
<title>ImagemainComponent</title>
<polygon fill="#ffffb3" stroke="#000000" points="236.3089,-122 91.6911,-122 91.6911,-86 236.3089,-86 236.3089,-122"/>
<text text-anchor="middle" x="164" y="-99.8" font-family="Times,serif" font-size="14.00" fill="#000000">ImagemainComponent</text>
</g>
<!-- ImagemainComponent&#45;&gt;ImageSliderModule -->
<g id="edge2" class="edge">
<title>ImagemainComponent&#45;&gt;ImageSliderModule</title>
<path fill="none" stroke="#000000" d="M165,-122.1061C165,-122.1061 165,-140.991 165,-140.991"/>
<polygon fill="#000000" stroke="#000000" points="161.5001,-140.9909 165,-150.991 168.5001,-140.991 161.5001,-140.9909"/>
</g>
<!-- ImageSliderComponent  -->
<g id="node4" class="node">
<title>ImageSliderComponent </title>
<polygon fill="#fb8072" stroke="#000000" points="407.752,-252 254.248,-252 254.248,-216 407.752,-216 407.752,-252"/>
<text text-anchor="middle" x="331" y="-229.8" font-family="Times,serif" font-size="14.00" fill="#000000">ImageSliderComponent </text>
</g>
<!-- ImageSliderModule&#45;&gt;ImageSliderComponent  -->
<g id="edge3" class="edge">
<title>ImageSliderModule&#45;&gt;ImageSliderComponent </title>
<path fill="none" stroke="#000000" stroke-dasharray="5,2" d="M229.3067,-175C265.7817,-175 304.208,-175 304.208,-175 304.208,-175 304.208,-205.9775 304.208,-205.9775"/>
<polygon fill="#000000" stroke="#000000" points="300.7081,-205.9774 304.208,-215.9775 307.7081,-205.9775 300.7081,-205.9774"/>
</g>
<!-- ImagemainComponent  -->
<g id="node5" class="node">
<title>ImagemainComponent </title>
<polygon fill="#fb8072" stroke="#000000" points="235.8087,-252 88.1913,-252 88.1913,-216 235.8087,-216 235.8087,-252"/>
<text text-anchor="middle" x="162" y="-229.8" font-family="Times,serif" font-size="14.00" fill="#000000">ImagemainComponent </text>
</g>
<!-- ImageSliderModule&#45;&gt;ImagemainComponent  -->
<g id="edge4" class="edge">
<title>ImageSliderModule&#45;&gt;ImagemainComponent </title>
<path fill="none" stroke="#000000" stroke-dasharray="5,2" d="M165,-187.1061C165,-187.1061 165,-205.991 165,-205.991"/>
<polygon fill="#000000" stroke="#000000" points="161.5001,-205.9909 165,-215.991 168.5001,-205.991 161.5001,-205.9909"/>
</g>
</g>
</svg>
