<?xml version="1.0" encoding="UTF-8" standalone="no"?>
<!DOCTYPE svg PUBLIC "-//W3C//DTD SVG 1.1//EN"
 "http://www.w3.org/Graphics/SVG/1.1/DTD/svg11.dtd">
<!-- Generated by graphviz version 2.40.1 (20161225.0304)
 -->
<!-- Title: dependencies Pages: 1 -->
<svg width="504pt" height="284pt"
 viewBox="0.00 0.00 504.00 284.00" xmlns="http://www.w3.org/2000/svg" xmlns:xlink="http://www.w3.org/1999/xlink">
<g id="graph0" class="graph" transform="scale(1 1) rotate(0) translate(4 280)">
<title>dependencies</title>
<polygon fill="#ffffff" stroke="transparent" points="-4,4 -4,-280 500,-280 500,4 -4,4"/>
<text text-anchor="start" x="227.0091" y="-42.4" font-family="sans-serif" font-weight="bold" font-size="14.00" fill="#000000">Legend</text>
<polygon fill="#ffffb3" stroke="transparent" points="14,-10 14,-30 34,-30 34,-10 14,-10"/>
<text text-anchor="start" x="37.629" y="-15.4" font-family="sans-serif" font-size="14.00" fill="#000000"> &#160;Declarations</text>
<polygon fill="#8dd3c7" stroke="transparent" points="127,-10 127,-30 147,-30 147,-10 127,-10"/>
<text text-anchor="start" x="150.7251" y="-15.4" font-family="sans-serif" font-size="14.00" fill="#000000"> &#160;Module</text>
<polygon fill="#80b1d3" stroke="transparent" points="213,-10 213,-30 233,-30 233,-10 213,-10"/>
<text text-anchor="start" x="236.7812" y="-15.4" font-family="sans-serif" font-size="14.00" fill="#000000"> &#160;Bootstrap</text>
<polygon fill="#fdb462" stroke="transparent" points="310,-10 310,-30 330,-30 330,-10 310,-10"/>
<text text-anchor="start" x="333.6732" y="-15.4" font-family="sans-serif" font-size="14.00" fill="#000000"> &#160;Providers</text>
<polygon fill="#fb8072" stroke="transparent" points="406,-10 406,-30 426,-30 426,-10 406,-10"/>
<text text-anchor="start" x="429.7258" y="-15.4" font-family="sans-serif" font-size="14.00" fill="#000000"> &#160;Exports</text>
<g id="clust1" class="cluster">
<title>cluster_QuickDatePickerModule</title>
<polygon fill="none" stroke="#000000" stroke-dasharray="1,5" points="70,-70 70,-268 426,-268 426,-70 70,-70"/>
</g>
<g id="clust2" class="cluster">
<title>cluster_QuickDatePickerModule_declarations</title>
<polygon fill="none" stroke="#000000" points="224,-78 224,-130 418,-130 418,-78 224,-78"/>
</g>
<g id="clust4" class="cluster">
<title>cluster_QuickDatePickerModule_imports</title>
<polygon fill="none" stroke="#000000" points="78,-78 78,-130 216,-130 216,-78 78,-78"/>
</g>
<g id="clust5" class="cluster">
<title>cluster_QuickDatePickerModule_exports</title>
<polygon fill="none" stroke="#000000" points="149,-208 149,-260 347,-260 347,-208 149,-208"/>
</g>
<!-- QuickDatePickerComponent -->
<g id="node1" class="node">
<title>QuickDatePickerComponent</title>
<polygon fill="#ffffb3" stroke="#000000" points="409.7338,-122 232.2662,-122 232.2662,-86 409.7338,-86 409.7338,-122"/>
<text text-anchor="middle" x="321" y="-99.8" font-family="Times,serif" font-size="14.00" fill="#000000">QuickDatePickerComponent</text>
</g>
<!-- QuickDatePickerModule -->
<g id="node2" class="node">
<title>QuickDatePickerModule</title>
<polygon fill="#8dd3c7" stroke="#000000" points="325.951,-187 322.951,-191 301.951,-191 298.951,-187 170.049,-187 170.049,-151 325.951,-151 325.951,-187"/>
<text text-anchor="middle" x="248" y="-164.8" font-family="Times,serif" font-size="14.00" fill="#000000">QuickDatePickerModule</text>
</g>
<!-- QuickDatePickerComponent&#45;&gt;QuickDatePickerModule -->
<g id="edge1" class="edge">
<title>QuickDatePickerComponent&#45;&gt;QuickDatePickerModule</title>
<path fill="none" stroke="#000000" d="M279.0544,-122.1061C279.0544,-122.1061 279.0544,-140.991 279.0544,-140.991"/>
<polygon fill="#000000" stroke="#000000" points="275.5544,-140.9909 279.0544,-150.991 282.5544,-140.991 275.5544,-140.9909"/>
</g>
<!-- QuickDatePickerComponent  -->
<g id="node4" class="node">
<title>QuickDatePickerComponent </title>
<polygon fill="#fb8072" stroke="#000000" points="338.7338,-252 157.2662,-252 157.2662,-216 338.7338,-216 338.7338,-252"/>
<text text-anchor="middle" x="248" y="-229.8" font-family="Times,serif" font-size="14.00" fill="#000000">QuickDatePickerComponent </text>
</g>
<!-- QuickDatePickerModule&#45;&gt;QuickDatePickerComponent  -->
<g id="edge3" class="edge">
<title>QuickDatePickerModule&#45;&gt;QuickDatePickerComponent </title>
<path fill="none" stroke="#000000" stroke-dasharray="5,2" d="M248,-187.1061C248,-187.1061 248,-205.991 248,-205.991"/>
<polygon fill="#000000" stroke="#000000" points="244.5001,-205.9909 248,-215.991 251.5001,-205.991 244.5001,-205.9909"/>
</g>
<!-- DatePickerModule -->
<g id="node3" class="node">
<title>DatePickerModule</title>
<polygon fill="#8dd3c7" stroke="#000000" points="207.7395,-122 204.7395,-126 183.7395,-126 180.7395,-122 86.2605,-122 86.2605,-86 207.7395,-86 207.7395,-122"/>
<text text-anchor="middle" x="147" y="-99.8" font-family="Times,serif" font-size="14.00" fill="#000000">DatePickerModule</text>
</g>
<!-- DatePickerModule&#45;&gt;QuickDatePickerModule -->
<g id="edge2" class="edge">
<title>DatePickerModule&#45;&gt;QuickDatePickerModule</title>
<path fill="none" stroke="#000000" d="M188.9471,-122.1061C188.9471,-122.1061 188.9471,-140.991 188.9471,-140.991"/>
<polygon fill="#000000" stroke="#000000" points="185.4471,-140.9909 188.9471,-150.991 192.4471,-140.991 185.4471,-140.9909"/>
</g>
</g>
</svg>
