<?xml version="1.0" encoding="UTF-8" standalone="no"?>
<!DOCTYPE svg PUBLIC "-//W3C//DTD SVG 1.1//EN"
 "http://www.w3.org/Graphics/SVG/1.1/DTD/svg11.dtd">
<!-- Generated by graphviz version 2.40.1 (20161225.0304)
 -->
<!-- Title: dependencies Pages: 1 -->
<svg width="504pt" height="284pt"
 viewBox="0.00 0.00 504.00 284.00" xmlns="http://www.w3.org/2000/svg" xmlns:xlink="http://www.w3.org/1999/xlink">
<g id="graph0" class="graph" transform="scale(1 1) rotate(0) translate(4 280)">
<title>dependencies</title>
<polygon fill="#ffffff" stroke="transparent" points="-4,4 -4,-280 500,-280 500,4 -4,4"/>
<text text-anchor="start" x="227.0091" y="-42.4" font-family="sans-serif" font-weight="bold" font-size="14.00" fill="#000000">Legend</text>
<polygon fill="#ffffb3" stroke="transparent" points="14,-10 14,-30 34,-30 34,-10 14,-10"/>
<text text-anchor="start" x="37.629" y="-15.4" font-family="sans-serif" font-size="14.00" fill="#000000"> &#160;Declarations</text>
<polygon fill="#8dd3c7" stroke="transparent" points="127,-10 127,-30 147,-30 147,-10 127,-10"/>
<text text-anchor="start" x="150.7251" y="-15.4" font-family="sans-serif" font-size="14.00" fill="#000000"> &#160;Module</text>
<polygon fill="#80b1d3" stroke="transparent" points="213,-10 213,-30 233,-30 233,-10 213,-10"/>
<text text-anchor="start" x="236.7812" y="-15.4" font-family="sans-serif" font-size="14.00" fill="#000000"> &#160;Bootstrap</text>
<polygon fill="#fdb462" stroke="transparent" points="310,-10 310,-30 330,-30 330,-10 310,-10"/>
<text text-anchor="start" x="333.6732" y="-15.4" font-family="sans-serif" font-size="14.00" fill="#000000"> &#160;Providers</text>
<polygon fill="#fb8072" stroke="transparent" points="406,-10 406,-30 426,-30 426,-10 406,-10"/>
<text text-anchor="start" x="429.7258" y="-15.4" font-family="sans-serif" font-size="14.00" fill="#000000"> &#160;Exports</text>
<g id="clust1" class="cluster">
<title>cluster_IndeterminateTreeStructureModule</title>
<polygon fill="none" stroke="#000000" stroke-dasharray="1,5" points="87.5,-70 87.5,-268 408.5,-268 408.5,-70 87.5,-70"/>
</g>
<g id="clust2" class="cluster">
<title>cluster_IndeterminateTreeStructureModule_declarations</title>
<polygon fill="none" stroke="#000000" points="98.5,-78 98.5,-130 397.5,-130 397.5,-78 98.5,-78"/>
</g>
<g id="clust6" class="cluster">
<title>cluster_IndeterminateTreeStructureModule_exports</title>
<polygon fill="none" stroke="#000000" points="95.5,-208 95.5,-260 400.5,-260 400.5,-208 95.5,-208"/>
</g>
<!-- IndetreeComponent -->
<g id="node1" class="node">
<title>IndetreeComponent</title>
<polygon fill="#ffffb3" stroke="#000000" points="389.1881,-122 261.8119,-122 261.8119,-86 389.1881,-86 389.1881,-122"/>
<text text-anchor="middle" x="325.5" y="-99.8" font-family="Times,serif" font-size="14.00" fill="#000000">IndetreeComponent</text>
</g>
<!-- IndeterminateTreeStructureModule -->
<g id="node3" class="node">
<title>IndeterminateTreeStructureModule</title>
<polygon fill="#8dd3c7" stroke="#000000" points="354.7485,-187 351.7485,-191 330.7485,-191 327.7485,-187 140.2515,-187 140.2515,-151 354.7485,-151 354.7485,-187"/>
<text text-anchor="middle" x="247.5" y="-164.8" font-family="Times,serif" font-size="14.00" fill="#000000">IndeterminateTreeStructureModule</text>
</g>
<!-- IndetreeComponent&#45;&gt;IndeterminateTreeStructureModule -->
<g id="edge1" class="edge">
<title>IndetreeComponent&#45;&gt;IndeterminateTreeStructureModule</title>
<path fill="none" stroke="#000000" d="M308.2651,-122.1061C308.2651,-122.1061 308.2651,-140.991 308.2651,-140.991"/>
<polygon fill="#000000" stroke="#000000" points="304.7652,-140.9909 308.2651,-150.991 311.7652,-140.991 304.7652,-140.9909"/>
</g>
<!-- TreeNodeComponent -->
<g id="node2" class="node">
<title>TreeNodeComponent</title>
<polygon fill="#ffffb3" stroke="#000000" points="244.2963,-122 106.7037,-122 106.7037,-86 244.2963,-86 244.2963,-122"/>
<text text-anchor="middle" x="175.5" y="-99.8" font-family="Times,serif" font-size="14.00" fill="#000000">TreeNodeComponent</text>
</g>
<!-- TreeNodeComponent&#45;&gt;IndeterminateTreeStructureModule -->
<g id="edge2" class="edge">
<title>TreeNodeComponent&#45;&gt;IndeterminateTreeStructureModule</title>
<path fill="none" stroke="#000000" d="M192.2619,-122.1061C192.2619,-122.1061 192.2619,-140.991 192.2619,-140.991"/>
<polygon fill="#000000" stroke="#000000" points="188.762,-140.9909 192.2619,-150.991 195.762,-140.991 188.762,-140.9909"/>
</g>
<!-- IndetreeComponent  -->
<g id="node4" class="node">
<title>IndetreeComponent </title>
<polygon fill="#fb8072" stroke="#000000" points="392.6884,-252 262.3116,-252 262.3116,-216 392.6884,-216 392.6884,-252"/>
<text text-anchor="middle" x="327.5" y="-229.8" font-family="Times,serif" font-size="14.00" fill="#000000">IndetreeComponent </text>
</g>
<!-- IndeterminateTreeStructureModule&#45;&gt;IndetreeComponent  -->
<g id="edge3" class="edge">
<title>IndeterminateTreeStructureModule&#45;&gt;IndetreeComponent </title>
<path fill="none" stroke="#000000" stroke-dasharray="5,2" d="M308.3901,-187.1061C308.3901,-187.1061 308.3901,-205.991 308.3901,-205.991"/>
<polygon fill="#000000" stroke="#000000" points="304.8902,-205.9909 308.3901,-215.991 311.8902,-205.991 304.8902,-205.9909"/>
</g>
<!-- TreeNodeComponent  -->
<g id="node5" class="node">
<title>TreeNodeComponent </title>
<polygon fill="#fb8072" stroke="#000000" points="243.7961,-252 103.2039,-252 103.2039,-216 243.7961,-216 243.7961,-252"/>
<text text-anchor="middle" x="173.5" y="-229.8" font-family="Times,serif" font-size="14.00" fill="#000000">TreeNodeComponent </text>
</g>
<!-- IndeterminateTreeStructureModule&#45;&gt;TreeNodeComponent  -->
<g id="edge4" class="edge">
<title>IndeterminateTreeStructureModule&#45;&gt;TreeNodeComponent </title>
<path fill="none" stroke="#000000" stroke-dasharray="5,2" d="M192.1369,-187.1061C192.1369,-187.1061 192.1369,-205.991 192.1369,-205.991"/>
<polygon fill="#000000" stroke="#000000" points="188.637,-205.9909 192.1369,-215.991 195.637,-205.991 188.637,-205.9909"/>
</g>
</g>
</svg>
