<?xml version="1.0" encoding="UTF-8" standalone="no"?>
<!DOCTYPE svg PUBLIC "-//W3C//DTD SVG 1.1//EN"
 "http://www.w3.org/Graphics/SVG/1.1/DTD/svg11.dtd">
<!-- Generated by graphviz version 2.40.1 (20161225.0304)
 -->
<!-- Title: dependencies Pages: 1 -->
<svg width="724pt" height="284pt"
 viewBox="0.00 0.00 724.00 284.00" xmlns="http://www.w3.org/2000/svg" xmlns:xlink="http://www.w3.org/1999/xlink">
<g id="graph0" class="graph" transform="scale(1 1) rotate(0) translate(4 280)">
<title>dependencies</title>
<polygon fill="#ffffff" stroke="transparent" points="-4,4 -4,-280 720,-280 720,4 -4,4"/>
<text text-anchor="start" x="337.0091" y="-42.4" font-family="sans-serif" font-weight="bold" font-size="14.00" fill="#000000">Legend</text>
<polygon fill="#ffffb3" stroke="transparent" points="124,-10 124,-30 144,-30 144,-10 124,-10"/>
<text text-anchor="start" x="147.629" y="-15.4" font-family="sans-serif" font-size="14.00" fill="#000000"> &#160;Declarations</text>
<polygon fill="#8dd3c7" stroke="transparent" points="237,-10 237,-30 257,-30 257,-10 237,-10"/>
<text text-anchor="start" x="260.7251" y="-15.4" font-family="sans-serif" font-size="14.00" fill="#000000"> &#160;Module</text>
<polygon fill="#80b1d3" stroke="transparent" points="323,-10 323,-30 343,-30 343,-10 323,-10"/>
<text text-anchor="start" x="346.7812" y="-15.4" font-family="sans-serif" font-size="14.00" fill="#000000"> &#160;Bootstrap</text>
<polygon fill="#fdb462" stroke="transparent" points="420,-10 420,-30 440,-30 440,-10 420,-10"/>
<text text-anchor="start" x="443.6732" y="-15.4" font-family="sans-serif" font-size="14.00" fill="#000000"> &#160;Providers</text>
<polygon fill="#fb8072" stroke="transparent" points="516,-10 516,-30 536,-30 536,-10 516,-10"/>
<text text-anchor="start" x="539.7258" y="-15.4" font-family="sans-serif" font-size="14.00" fill="#000000"> &#160;Exports</text>
<g id="clust1" class="cluster">
<title>cluster_AccordionGroupModule</title>
<polygon fill="none" stroke="#000000" stroke-dasharray="1,5" points="8,-70 8,-268 708,-268 708,-70 8,-70"/>
</g>
<g id="clust2" class="cluster">
<title>cluster_AccordionGroupModule_declarations</title>
<polygon fill="none" stroke="#000000" points="182,-78 182,-130 700,-130 700,-78 182,-78"/>
</g>
<g id="clust6" class="cluster">
<title>cluster_AccordionGroupModule_imports</title>
<polygon fill="none" stroke="#000000" points="16,-78 16,-130 174,-130 174,-78 16,-78"/>
</g>
<g id="clust7" class="cluster">
<title>cluster_AccordionGroupModule_exports</title>
<polygon fill="none" stroke="#000000" points="93,-208 93,-260 623,-260 623,-208 93,-208"/>
</g>
<!-- AccordionComponent -->
<g id="node1" class="node">
<title>AccordionComponent</title>
<polygon fill="#ffffb3" stroke="#000000" points="692.42,-122 551.58,-122 551.58,-86 692.42,-86 692.42,-122"/>
<text text-anchor="middle" x="622" y="-99.8" font-family="Times,serif" font-size="14.00" fill="#000000">AccordionComponent</text>
</g>
<!-- AccordionGroupModule -->
<g id="node4" class="node">
<title>AccordionGroupModule</title>
<polygon fill="#8dd3c7" stroke="#000000" points="453.4045,-187 450.4045,-191 429.4045,-191 426.4045,-187 298.5955,-187 298.5955,-151 453.4045,-151 453.4045,-187"/>
<text text-anchor="middle" x="376" y="-164.8" font-family="Times,serif" font-size="14.00" fill="#000000">AccordionGroupModule</text>
</g>
<!-- AccordionComponent&#45;&gt;AccordionGroupModule -->
<g id="edge1" class="edge">
<title>AccordionComponent&#45;&gt;AccordionGroupModule</title>
<path fill="none" stroke="#000000" d="M583.375,-122.0225C583.375,-139.3734 583.375,-163 583.375,-163 583.375,-163 463.2188,-163 463.2188,-163"/>
<polygon fill="#000000" stroke="#000000" points="463.2188,-159.5001 453.2188,-163 463.2188,-166.5001 463.2188,-159.5001"/>
</g>
<!-- AccordionGComponent -->
<g id="node2" class="node">
<title>AccordionGComponent</title>
<polygon fill="#ffffb3" stroke="#000000" points="534.0267,-122 383.9733,-122 383.9733,-86 534.0267,-86 534.0267,-122"/>
<text text-anchor="middle" x="459" y="-99.8" font-family="Times,serif" font-size="14.00" fill="#000000">AccordionGComponent</text>
</g>
<!-- AccordionGComponent&#45;&gt;AccordionGroupModule -->
<g id="edge2" class="edge">
<title>AccordionGComponent&#45;&gt;AccordionGroupModule</title>
<path fill="none" stroke="#000000" d="M418.4695,-122.1061C418.4695,-122.1061 418.4695,-140.991 418.4695,-140.991"/>
<polygon fill="#000000" stroke="#000000" points="414.9696,-140.9909 418.4695,-150.991 421.9696,-140.991 414.9696,-140.9909"/>
</g>
<!-- AccordionGroupComponent -->
<g id="node3" class="node">
<title>AccordionGroupComponent</title>
<polygon fill="#ffffb3" stroke="#000000" points="366.1867,-122 189.8133,-122 189.8133,-86 366.1867,-86 366.1867,-122"/>
<text text-anchor="middle" x="278" y="-99.8" font-family="Times,serif" font-size="14.00" fill="#000000">AccordionGroupComponent</text>
</g>
<!-- AccordionGroupComponent&#45;&gt;AccordionGroupModule -->
<g id="edge3" class="edge">
<title>AccordionGroupComponent&#45;&gt;AccordionGroupModule</title>
<path fill="none" stroke="#000000" d="M332.4457,-122.1061C332.4457,-122.1061 332.4457,-140.991 332.4457,-140.991"/>
<polygon fill="#000000" stroke="#000000" points="328.9457,-140.9909 332.4457,-150.991 335.9457,-140.991 328.9457,-140.9909"/>
</g>
<!-- AccordionComponent  -->
<g id="node6" class="node">
<title>AccordionComponent </title>
<polygon fill="#fb8072" stroke="#000000" points="614.9194,-252 471.0806,-252 471.0806,-216 614.9194,-216 614.9194,-252"/>
<text text-anchor="middle" x="543" y="-229.8" font-family="Times,serif" font-size="14.00" fill="#000000">AccordionComponent </text>
</g>
<!-- AccordionGroupModule&#45;&gt;AccordionComponent  -->
<g id="edge5" class="edge">
<title>AccordionGroupModule&#45;&gt;AccordionComponent </title>
<path fill="none" stroke="#000000" stroke-dasharray="5,2" d="M453.3222,-175C479.691,-175 502.6517,-175 502.6517,-175 502.6517,-175 502.6517,-205.9775 502.6517,-205.9775"/>
<polygon fill="#000000" stroke="#000000" points="499.1517,-205.9774 502.6517,-215.9775 506.1517,-205.9775 499.1517,-205.9774"/>
</g>
<!-- AccordionGComponent  -->
<g id="node7" class="node">
<title>AccordionGComponent </title>
<polygon fill="#fb8072" stroke="#000000" points="453.026,-252 298.974,-252 298.974,-216 453.026,-216 453.026,-252"/>
<text text-anchor="middle" x="376" y="-229.8" font-family="Times,serif" font-size="14.00" fill="#000000">AccordionGComponent </text>
</g>
<!-- AccordionGroupModule&#45;&gt;AccordionGComponent  -->
<g id="edge6" class="edge">
<title>AccordionGroupModule&#45;&gt;AccordionGComponent </title>
<path fill="none" stroke="#000000" stroke-dasharray="5,2" d="M376,-187.1061C376,-187.1061 376,-205.991 376,-205.991"/>
<polygon fill="#000000" stroke="#000000" points="372.5001,-205.9909 376,-215.991 379.5001,-205.991 372.5001,-205.9909"/>
</g>
<!-- AccordionGroupComponent  -->
<g id="node8" class="node">
<title>AccordionGroupComponent </title>
<polygon fill="#fb8072" stroke="#000000" points="280.6869,-252 101.3131,-252 101.3131,-216 280.6869,-216 280.6869,-252"/>
<text text-anchor="middle" x="191" y="-229.8" font-family="Times,serif" font-size="14.00" fill="#000000">AccordionGroupComponent </text>
</g>
<!-- AccordionGroupModule&#45;&gt;AccordionGroupComponent  -->
<g id="edge7" class="edge">
<title>AccordionGroupModule&#45;&gt;AccordionGroupComponent </title>
<path fill="none" stroke="#000000" stroke-dasharray="5,2" d="M298.694,-175C266.0171,-175 235.375,-175 235.375,-175 235.375,-175 235.375,-205.9775 235.375,-205.9775"/>
<polygon fill="#000000" stroke="#000000" points="231.8751,-205.9774 235.375,-215.9775 238.8751,-205.9775 231.8751,-205.9774"/>
</g>
<!-- DemoMaterialModule -->
<g id="node5" class="node">
<title>DemoMaterialModule</title>
<polygon fill="#8dd3c7" stroke="#000000" points="165.6825,-122 162.6825,-126 141.6825,-126 138.6825,-122 24.3175,-122 24.3175,-86 165.6825,-86 165.6825,-122"/>
<text text-anchor="middle" x="95" y="-99.8" font-family="Times,serif" font-size="14.00" fill="#000000">DemoMaterialModule</text>
</g>
<!-- DemoMaterialModule&#45;&gt;AccordionGroupModule -->
<g id="edge4" class="edge">
<title>DemoMaterialModule&#45;&gt;AccordionGroupModule</title>
<path fill="none" stroke="#000000" d="M133.374,-122.0225C133.374,-139.3734 133.374,-163 133.374,-163 133.374,-163 288.5645,-163 288.5645,-163"/>
<polygon fill="#000000" stroke="#000000" points="288.5646,-166.5001 298.5645,-163 288.5645,-159.5001 288.5646,-166.5001"/>
</g>
</g>
</svg>
